<svg xmlns="http://www.w3.org/2000/svg" version="1.1" viewBox="-5.0 -10.0 110.0 135.0">
    <path
        d="m81.559 13.77c-0.085938-0.69531-0.64844-1.2695-1.3516-1.2695s-1.2617 0.57422-1.3516 1.2695c-0.57422 4.6094-4.2266 8.2617-8.8359 8.8359-0.69531 0.089843-1.2695 0.64844-1.2695 1.3516s0.57422 1.2656 1.2695 1.3516c4.6094 0.57422 8.2617 4.2266 8.8359 8.8359 0.089843 0.69922 0.64844 1.2734 1.3516 1.2734s1.2656-0.57422 1.3516-1.2734c0.57422-4.6094 4.2266-8.2617 8.8359-8.8359 0.69922-0.085938 1.2734-0.64844 1.2734-1.3516s-0.57422-1.2617-1.2734-1.3516c-4.6094-0.57422-8.2617-4.2266-8.8359-8.8359z" />
    <path
        d="m64.668 32.289c-0.09375-0.57031-0.55078-1.0391-1.125-1.0391-0.57812 0-1.0352 0.46875-1.1289 1.0391-0.44531 2.6562-2.5664 4.7461-5.2422 5.1445-0.50391 0.074218-0.92188 0.48047-0.92188 0.99219s0.41797 0.91797 0.92188 1c2.6758 0.42578 4.8008 2.6758 5.2422 5.3711 0.09375 0.56641 0.55078 1.0352 1.1289 1.0352 0.57422 0 1.0312-0.46875 1.125-1.0352 0.44141-2.6953 2.5664-4.9453 5.2422-5.3711 0.50781-0.082031 0.92188-0.48828 0.92188-1s-0.41406-0.91797-0.92188-0.99219c-2.6758-0.39844-4.7969-2.4883-5.2422-5.1445z" />
    <path
        d="m8.332 25c0-4.6016 3.7305-8.332 8.3359-8.332h43.75c2.3008 0 4.1641 1.8633 4.1641 4.1641s-1.8633 4.168-4.1641 4.168h-41.668c-1.1523 0-2.082 0.93359-2.082 2.082v50c0 1.1523 0.92969 2.0859 2.082 2.0859h58.332c1.1523 0 2.0859-0.93359 2.0859-2.0859v-32.812c0-2.3008 1.8633-4.1641 4.1641-4.1641s4.168 1.8633 4.168 4.1641v34.898c0 4.6016-3.7305 8.332-8.332 8.332h-62.5c-4.6055 0-8.3359-3.7305-8.3359-8.332z" />
    <path
        d="m23.52 47.797c-0.38672 0.39062-0.60156 0.91797-0.60156 1.4648v21.57c0 1.1523 0.92969 2.0859 2.082 2.0859h45.832c1.1523 0 2.0859-0.93359 2.0859-2.0859v-11.637c0-0.55078-0.22266-1.082-0.61328-1.4727l-6.25-6.25c-0.8125-0.8125-2.1328-0.8125-2.9453 0l-4.2422 4.2422c-0.81641 0.81641-2.1367 0.8125-2.9492-0.003906l-18.664-18.801c-0.81641-0.82422-2.1445-0.82422-2.957 0z" />
</svg>